<svg id="Livello_1" data-name="Livello 1" xmlns="http://www.w3.org/2000/svg" viewBox="0 0 40.02 31"><defs><style>.cls-1{fill:#fcfcfc;}</style></defs><path class="cls-1" d="M5.8,32.1c-1.5,1-1,2.9,2.2,3.8a21.52,21.52,0,0,0,10.4.8,4.33,4.33,0,0,0,.5-.1V33.2l-3.4,1.1a7.4,7.4,0,0,1-3.9.2c-1-.3-.8-.9.4-1.4l6.9-2.4V27L9.3,30.3A12.93,12.93,0,0,0,5.8,32.1ZM29,17.1v9.7c4.1,2,7.3,0,7.3-5.2s-1.9-7.7-7.4-9.6A69.2,69.2,0,0,0,20,9.5V38.4l7,2.1V16.2c0-1.1,0-1.9.8-1.6C28.9,14.9,29,16,29,17.1ZM42,29.8a21.28,21.28,0,0,0-9-1.1,16.4,16.4,0,0,0-4.5,1l-.3.1v3.9l6.5-2.4a7.4,7.4,0,0,1,3.9-.2c1,.3.8.9-.4,1.4l-10,3.7V40L42,34.9a7.71,7.71,0,0,0,2.7-1.7C45.4,32.2,45.1,30.8,42,29.8Z" transform="translate(-4.99 -9.5)"/></svg>